<?xml version="1.0" encoding="UTF-8"?>
<svg id="Layer_2" data-name="Layer 2" xmlns="http://www.w3.org/2000/svg" viewBox="0 0 610.14 358.75">
  <defs>
    <style>
      .cls-1 {
        stroke-width: 0px;
      }
    </style>
  </defs>
  <g id="Layer_1-2" data-name="Layer 1">
    <g>
      <path class="cls-1" d="M482.62,231.2c.51,15.72-3.26,30.4-10.73,44.14-4.05,7.44-9.36,13.83-16.83,18.04-5.34,3.02-10.96,4.09-16.4.18-1.74-1.25-2.56-.47-3.78.61-2.62,2.32-5.43,4.4-8.74,5.69-6,2.34-11.29,1.24-15.17-3.82-1.78-2.32-2.33-1.78-3.77.12-9.57,12.66-19.94,24.64-33.36,33.38-34.22,22.29-70.97,26.26-109.39,13.46-25.48-8.49-45.32-24.72-59.76-47.44-1.18-1.85-1.96-3.37-4.15-.45-5.15,6.87-12.62,7.74-19.73,2.69-3.57-2.53-5.89-5.57-11.81-2.58-6.08,3.07-12.78-.32-18.07-5.28-11.68-10.96-18.03-24.67-20.7-40.12-4.34-25.1-1.81-49.11,12.86-70.83,2.44-3.61,5.17-7.04,8.76-9.5,2.91-1.99,3.93-4.45,4.2-7.85,2.44-31.29,18.09-55.84,39.79-77.21,24.76-24.38,54.36-39.77,88.82-43.8,46.69-5.46,88.35,7.37,123.93,38.54,18.69,16.38,33.68,35.44,41.91,59.28,2.63,7.61,4.51,15.31,4.64,23.37.05,3.2,1.13,5.41,3.69,7.63,12.59,10.93,19.24,25.22,22.27,41.36,1.26,6.73,1.41,13.57,1.51,20.36ZM404.86,217.27c-.2-27.13-8.67-44.33-26.73-56.77-21.9-15.08-51.25-12.29-68.56,7.1-3.12,3.5-4.74,3.69-7.92.14-10.49-11.71-23.85-17.59-39.54-16.7-21.22,1.2-37.22,11.55-47.75,29.94-11.39,19.9-13.58,50.25,8.58,71.17,11.62,10.97,22.52,22.71,33.79,34.05,10.34,10.39,20.41,21.05,31.33,30.83,9.27,8.3,27.23,8.75,35.31.28,5.16-5.41,10.58-10.56,15.83-15.88,17.06-17.33,34.08-34.7,51.13-52.04,10.26-10.44,14.87-23.02,14.53-32.11ZM308.31,60.21c-50.12,1.12-87.33,20.34-115.28,57.39-8.58,11.37-15.04,23.96-17.67,38.19-.26,1.43-.65,3.62.07,4.26,1.38,1.22,2.5-.87,3.68-1.56,5.51-3.23,11.09-5.2,17.55-2.8,2.46.91,4.17,4.58,6.58,3.46,2.3-1.08,3.65-4.17,5.44-6.35,1.06-1.29,2.16-2.54,3.25-3.8,52.64-61.02,147.6-56.49,194.25,9.31,1.95,2.75,3.27,2.68,5.29.29,3.65-4.32,8.23-5.22,13.53-3.48,2.4.78,4.62,1.83,6.77,3.13,1.22.73,2.28,2.74,3.76,1.85,1.81-1.1.29-3.11.01-4.55-1.32-6.87-3.11-13.7-6.52-19.83-27.07-48.73-68.93-73.11-120.71-75.51ZM165,226.78c-.3,6.99.13,14.11,1.24,21.2,1.65,10.56,4.44,20.7,10.94,29.45,1.47,1.98,3.5,3.6,5.91,2.4,2.58-1.28,2.39-3.67,1.7-6.42-1.61-6.4-3.6-12.69-4.47-19.31-3.76-28.6-2.37-56.38,11.76-82.4.79-1.46,2.51-3.2.67-4.93-1.9-1.79-4.04-1.04-5.96.2-3.28,2.11-5.61,5.14-7.92,8.21-11.52,15.29-14.2,32.96-13.87,51.62ZM446.78,225.96c.22-7.06-.32-15.17-2.17-23.16-3.09-13.4-8.99-25.32-18.88-35.08-1.79-1.76-3.85-2.82-6.24-1.22-2.71,1.8-.84,3.88-.02,5.7,2.75,6.05,5.88,11.92,7.82,18.32,8.26,27.3,7.36,54.63-.06,81.88-.82,3.02-.24,3.16,2.44,3.43,6.07.61,8.02-3.08,9.96-7.83,5.4-13.16,7.27-26.85,7.14-42.05ZM159.54,176.69c-1.64.55-2.99,2.12-4.15,3.65-6.21,8.16-10.63,17.23-13.19,27.16-2,7.74-3.35,15.6-2.87,23.64.15,2.45,1.08,4.8,4.01,4.84,2.72.04,4.17-1.74,4.46-4.41.27-2.48.75-4.96.72-7.43-.2-14.54,4.19-27.75,11.37-40.19.82-1.42,1.61-2.93,2.04-4.49.38-1.4-.15-2.65-2.39-2.76ZM471.75,225.49c-.49-16.02-5.08-30.71-14.39-43.81-1.51-2.13-2.83-6.04-6.27-4.01-4.1,2.43-.37,5.31.91,7.54,5.38,9.32,8.96,19.14,10.37,29.86.68,5.15.6,10.27.88,15.41.16,2.89,1.22,5.56,4.56,5.39,2.96-.15,4.02-2.54,3.95-5.39-.04-1.66,0-3.32-.01-5Z"/>
      <path class="cls-1" d="M555.25,226.88c.53,17.6-3.54,13.59,14.36,19.12,10.48,3.24,21.1,6.06,31.65,9.05,2.42.69,4.83,1.4,6.63,3.27,2.19,2.27,2.91,4.8,1.15,7.69-1.65,2.73-3.99,3.22-6.89,2.28-5.22-1.7-10.49-3.23-15.67-5.03-3.54-1.22-5.39-.7-5.17,3.55.18,3.49.19,7.01-.11,10.49-.32,3.78,1.37,5.31,4.87,6.11,5.02,1.14,9.93,2.75,14.88,4.19,1.28.37,2.56.75,3.77,1.29,3.41,1.52,6.24,3.61,5.21,7.93-.82,3.45-4.54,4.79-9.13,3.41-4.46-1.34-8.85-2.88-13.29-4.27-5.91-1.86-6.02-1.77-6.14,4.56q-.27,13.89,12.66,18.06c3.48,1.12,7.1,1.87,10.47,3.25,3.31,1.36,6.56,3.42,5.23,7.81-1.36,4.51-5.07,5-8.94,3.85-17.68-5.29-35.34-10.66-52.97-16.12-3.87-1.2-6.55-3.65-5.25-8.19,1.42-4.94,5.2-4.3,8.93-3.29,3.53.95,7.06,1.92,10.54,3.04,3.24,1.05,4.76.68,4.83-3.38.26-15.56.38-15.53-14.48-19.87-2.54-.74-5.16-1.53-7.4-2.86-2.86-1.7-3.91-4.46-2.48-7.74,1.39-3.2,3.96-3.81,7.04-2.91,3.98,1.17,8,2.27,11.89,3.7,3.89,1.42,6.01,1.05,5.34-3.81-.27-1.96,0-3.99-.05-5.99-.25-9.15,2.02-8.05-8.74-11.23-16.96-5.02-15-2.61-15.11-20.04-.08-13-.24-25.99.58-38.97.15-2.36.16-4.68,2.89-5.81,2.99-1.23,5.2.19,7.18,2.05,2.79,2.62,5.22,5.64,8.12,8.11,8.8,7.49,19.26,6.78,27.15-1.63,10.9-11.62,9.52-30.13-3.23-41.45-5.6-4.97-11.98-8.36-19.76-8.43-2.41-.02-3.16.67-2.67,3.24,1.49,7.74-1.23,13.23-7.54,15.98-5.04,2.19-11.06.72-14.44-3.52-4.03-5.05-4.11-12.57-.04-18.13,4.2-5.75,10.33-8.11,17.03-9.47,16.05-3.27,35.49,6.12,44.95,21.77,9.19,15.2,8.06,33.89-3.17,47.08-7.82,9.17-17.57,14.13-30,12.18-4.04-.63-7.54-2.62-10.96-4.66-3-1.79-3.76-.7-3.71,2.27.06,3.83.02,7.66.02,11.5Z"/>
      <path class="cls-1" d="M67.07,220.99c0,7.5-.31,15.02.1,22.49.3,5.4-1.98,7.98-6.92,9.21-4.67,1.17-9.25,2.7-13.87,4.1-1.61.49-3.38,1.01-3.48,3.06-.25,4.82-.43,9.65-.47,14.48-.02,2.77,2.12,2.14,3.62,1.76,4.02-1.03,7.97-2.35,11.98-3.42,5.63-1.5,8.95-.21,9.9,3.7.88,3.63-1.94,6.96-6.84,8.27-4.98,1.33-9.9,2.84-14.89,4.14-2.71.71-3.8,2.26-3.66,5.03.22,4.32.36,8.66.31,12.99-.03,2.67,1.02,3.18,3.36,2.49,4.3-1.26,8.64-2.41,12.96-3.61,3.79-1.05,7.09-.53,8.72,3.49,1.25,3.07-1.26,7.17-5.32,8.4-17.82,5.4-35.68,10.65-53.54,15.92-3.73,1.1-6.83.04-8.01-3.79-1.21-3.93,1-6.36,4.66-7.49,6.35-1.96,12.7-3.9,19.1-5.68,2.84-.79,4.15-2.19,3.96-5.29-.24-3.98-.25-8.01.02-11.99.26-3.85-1.55-4.14-4.5-3.23-4.61,1.42-9.21,2.85-13.84,4.19-5.21,1.5-8.07.33-9.35-3.68-1.13-3.56,1.23-6.8,6.03-8.17,5.76-1.64,11.48-3.44,17.31-4.75,3.49-.78,4.61-2.53,4.42-5.91-.21-3.82-.1-7.67,0-11.5.08-2.96-1.03-3.89-3.93-2.99-5.4,1.67-10.89,3.06-16.27,4.79-3.57,1.15-5.72-.16-7.26-3.26-1.61-3.25-.04-5.5,2.43-7.25,1.32-.93,2.96-1.49,4.53-1.97,13.51-4.13,26.99-8.38,40.58-12.21,4.52-1.27,6.1-3.41,5.81-8.09-.43-6.97-.14-13.99-.14-20.99,0-2.18-.55-3.41-2.83-1.69-18.88,14.22-44.76,1.88-50.79-24.1-6.81-29.34,23.18-58.23,52.44-51.17,8.48,2.05,14.77,6.64,16.99,15.67,1.5,6.11-1.39,10.34-5.78,13.81-4.07,3.22-9.71,3.38-14.04.5-4.66-3.11-6.9-7.6-6.3-13.23.65-6.05.53-6.25-5.2-5.15-21.04,4.04-32.29,26.91-22.12,44.93,7.2,12.76,19.61,15.28,31.04,6.16,2.85-2.28,5.27-5.09,7.98-7.55,2.09-1.9,4.19-3.95,7.49-2.45,3.13,1.42,3.58,4.05,3.57,7.04-.04,8-.01,16-.01,24h.04Z"/>
      <path class="cls-1" d="M545.16,59.03c0,11.15-.06,22.31.03,33.46.03,3.82-1.4,6.77-4.34,9.06-4.23,3.3-9.68,2.92-12.45-.84-3.15-4.29-2.01-10.8,2.74-13.33,2.25-1.2,2.58-2.67,2.58-4.78-.05-12.49-.04-24.97-.08-37.46,0-1.11.49-2.6-.64-3.24-1.49-.85-2.39.73-3.34,1.52-11.3,9.39-23.13,17.9-36.6,24.04-7.14,3.26-14.53,5.67-22.04,7.83-3.68,1.06-6.85.41-8.01-3.6-1.1-3.8,1.46-6.09,4.61-7.19,7.06-2.45,14.2-4.64,21.05-7.68,16.89-7.51,30.64-19.15,43.32-32.32,2.62-2.72,4.92-7.18,9.7-5.44,5.03,1.83,3.28,6.72,3.35,10.48.18,9.82.06,19.64.06,29.46h.04Z"/>
      <path class="cls-1" d="M65.55,59.01c0-10.99,0-21.98,0-32.97,0-2.68-.23-5.57,2.94-6.75,3.1-1.16,5.47.43,7.51,2.6,9.41,9.97,19.72,18.86,31.23,26.34,10.25,6.66,21.21,11.75,32.95,15.18,6.6,1.93,9.16,4.96,7.77,8.9-1.27,3.61-5.06,4.53-11.36,2.42-20.11-6.73-38.42-16.62-54.28-30.86-1.15-1.03-2.17-3.11-4-2.35-1.87.77-1.12,2.94-1.13,4.51-.08,11.82-.04,23.65-.11,35.47-.01,2.41.32,4.23,2.59,5.91,3.71,2.74,5.77,6.66,3.73,11.35-1.85,4.25-5.72,5.63-9.97,4.84-4.79-.9-7.7-4.37-7.82-9.12-.29-11.81-.09-23.64-.09-35.46.01,0,.03,0,.04,0Z"/>
      <path class="cls-1" d="M511.68,101.83c0,2.67-.03,5.33,0,7.99.07,5.47.14,10.8,3.07,15.89,2.64,4.59,1.74,9.37-1.98,13.34-3.36,3.59-7.55,4.94-12.27,3.56-5-1.47-7.43-5.35-8.29-10.28-.86-4.9,1.23-8.53,5.44-10.71,2.5-1.29,3.23-2.95,3.13-5.55-.13-3.66.05-7.33-.02-10.99-.03-1.23.69-2.9-.85-3.57-1.16-.5-2.07.79-2.99,1.4-6.71,4.52-13.95,7.75-21.9,9.33-.98.19-1.96.37-2.95.48-4.03.45-8.37.41-9.04-4.57-.63-4.78,3.27-6.42,7.36-6.99,11.1-1.56,20.52-6.43,28.51-14.24,1.54-1.51,3.25-2.87,4.98-4.16,1.65-1.24,3.55-2.08,5.59-1.14,2.23,1.03,2.02,3.21,2.02,5.22,0,5,0,9.99,0,14.99.06,0,.12,0,.18,0Z"/>
      <path class="cls-1" d="M111.17,115.8c-.99,5.02,1.62,11.28.16,17.62-1.44,6.23-5.37,9.68-11.48,9.63-5.61-.04-9.78-3.45-11.01-8.97-1.28-5.77,1.27-10.57,7.41-12.87,2.92-1.09,3.61-2.78,3.58-5.62-.1-8.99,0-17.99.09-26.99.02-2.3-.22-4.94,2.27-6.19,2.7-1.36,4.9.3,6.68,2.07,9.36,9.32,20.12,15.65,33.57,17.04,3.47.36,5.55,2.92,4.93,6.83-.59,3.77-3.16,4.74-6.53,4.64-8.95-.27-16.81-3.56-24.13-8.48-1.43-.96-2.88-3.09-4.65-2.08-1.71.97-.76,3.35-.85,5.1-.12,2.33-.03,4.66-.03,8.27Z"/>
      <path class="cls-1" d="M503.23,358.75c-18.7.14-33.65-19.47-28.42-37.31,1.83-6.24,6.97-9.5,12.89-8.19,4.53,1.01,7.32,5.59,6.5,10.85-.68,4.33-3.52,6.96-7.62,7.46-3.68.45-3.6,2-2.49,4.61.99,2.36,2.57,4.26,4.43,5.96,3.88,3.54,4.39,3.44,6.75-1.29,2.67-5.32,9.07-7.31,15.09-4.67,5.45,2.38,8.08,8.75,5.83,14.14-2.23,5.35-6.91,8.4-12.96,8.44Z"/>
      <path class="cls-1" d="M137.29,330.5c.66,17.18-18.7,29.21-31.17,28.16-7.36-.62-12.45-7.1-11.52-14.21.85-6.55,6.2-10.23,13.51-9.26,3.96.52,6.99,2.45,8,6.44.98,3.88,3.13,3.32,5.48,1.73,2.06-1.4,3.78-3.23,5.11-5.41,2.84-4.65,2.6-5.28-2.61-6.32-4.01-.8-7.11-4.65-7.27-9.03-.16-4.32,2.72-8.39,6.68-9.46,4.5-1.21,9.35.78,11.39,5,1.91,3.95,2.52,8.24,2.41,12.36Z"/>
      <path class="cls-1" d="M322.61.03c22.28,1.33,43.61,6.47,64.06,15.34,3.63,1.58,6.69,3.93,4.91,8.34-1.54,3.83-5.03,4-8.46,2.52-20.15-8.71-41.23-13.53-63.09-15.06-1.32-.09-2.69-.17-3.95-.54-2.87-.86-4.49-2.89-4.34-5.91.15-3.29,2.41-4.52,5.39-4.67,1.82-.09,3.65-.02,5.48-.02Z"/>
      <path class="cls-1" d="M287.74.03c1.87,0,3.53-.04,5.19,0,3.18.09,6.33.61,6.56,4.55.23,3.99-2.06,6-6.1,6.31-5.47.42-10.95.88-16.38,1.64-16.06,2.23-31.48,6.85-46.55,12.7-6.22,2.41-9.41,1.96-10.78-1.69-1.51-4,.49-6.56,6.89-8.95,17.01-6.34,34.26-11.82,52.41-13.83,2.97-.33,5.96-.51,8.75-.75Z"/>
      <path class="cls-1" d="M110.13,231.21c-.06,9.31-7.13,16.11-16.65,16.02-8.62-.08-16.13-7.65-16.13-16.25,0-9.3,7.5-16.53,16.99-16.37,8.6.15,15.85,7.77,15.8,16.59Z"/>
      <path class="cls-1" d="M532.36,231.3c-.06,9.18-6.98,15.99-16.23,15.97-9.22-.03-15.93-6.95-15.78-16.3.15-9.43,6.8-16.38,15.8-16.5,8.74-.12,16.27,7.7,16.21,16.83Z"/>
      <path class="cls-1" d="M440.17,39.77c0,4.98-.07,9.95.03,14.93.06,3.1-1.14,5.59-4.22,5.66-3.47.08-4.48-2.58-4.44-5.87.1-9.95.02-19.9,0-29.85,0-3.18.29-6.37,4.48-6.26,4.14.11,4.27,3.27,4.21,6.46-.09,4.97-.02,9.95-.02,14.93h-.04Z"/>
      <path class="cls-1" d="M179.1,39.23c0,5.16-.02,10.31,0,15.47.01,3.05-1.29,5.53-4.34,5.71-3.29.19-4.43-2.44-4.43-5.43,0-10.64.02-21.29.07-31.93.01-2.65,1.2-4.69,4.08-4.6,2.85.08,4.57,1.78,4.57,4.82,0,5.32,0,10.64,0,15.97h.04Z"/>
      <path class="cls-1" d="M193.15,339.07c0,5.64-4.08,9.7-9.72,9.69-5.15,0-9.88-5.15-9.72-10.57.16-5.14,4.5-9.11,9.92-9.05,5.54.06,9.53,4.21,9.52,9.92Z"/>
      <path class="cls-1" d="M417.62,338.63c.06-5.64,4.24-9.64,9.91-9.5,5.59.14,9.13,3.93,9.09,9.73-.04,5.51-4.45,10.1-9.65,10.05-5.25-.06-9.41-4.64-9.35-10.28Z"/>
      <path class="cls-1" d="M98.63,191.86c-2.98,0-5.97.18-8.93-.05-2.99-.23-4.94-1.97-4.98-5.11-.04-3.18,1.91-5.01,4.92-5.12,5.78-.22,11.59-.31,17.37-.04,3.03.14,5.38,1.76,5.14,5.41-.23,3.48-2.24,4.95-5.57,4.95-2.65,0-5.3,0-7.95,0,0-.01,0-.02,0-.03Z"/>
      <path class="cls-1" d="M512.04,191.97c-2.65,0-5.3,0-7.95,0-3.25,0-5.01-1.95-5.19-4.88-.19-3.01,1.65-5.22,4.69-5.38,5.95-.3,11.92-.41,17.87-.15,2.68.12,4.62,2.13,4.49,5.04-.13,3-2.02,4.99-4.98,5.31-2.95.31-5.95.07-8.93.06Z"/>
      <path class="cls-1" d="M98.27,269.22c3.16,0,6.32-.07,9.47.02,2.75.08,4.3,1.59,4.4,4.37.1,2.98-1.49,4.97-4.34,5.08-6.31.23-12.64.19-18.95-.03-2.7-.09-4.12-2.13-4.11-4.76.01-2.88,1.49-4.73,4.55-4.8,2.99-.08,5.99-.02,8.98-.02,0,.05,0,.1,0,.15Z"/>
      <path class="cls-1" d="M512.36,278.81c-2.98,0-5.96.08-8.93-.02-2.82-.09-4.27-1.95-4.32-4.51-.05-2.69,1.17-5.02,4.26-5.1,6.11-.17,12.24-.18,18.35-.04,2.63.06,4.28,1.7,4.36,4.46.08,2.91-1.46,4.84-4.3,5.11-3.11.3-6.28.07-9.42.07,0,.01,0,.02,0,.03Z"/>
      <path class="cls-1" d="M98.35,321.74c-4.23.09-7.62-3.24-7.57-7.45.05-4.38,3.13-7.8,7.19-8,4.27-.2,8.03,3.27,8.17,7.55.14,4.32-3.29,7.79-7.79,7.89Z"/>
      <path class="cls-1" d="M520.11,313.99c-.08,4.27-3.45,7.77-7.48,7.77-4.16,0-7.22-3.4-7.11-7.91.1-4.28,3.58-7.71,7.62-7.5,3.99.21,7.04,3.55,6.97,7.64Z"/>
      <path class="cls-1" d="M542.5,347.39c1.14-1.9-1.45-4.73,1.65-6.04.96-.41,8.16,5.11,8.18,6.04.02.72-7.31,6.44-8.09,6.11-3.11-1.3-.71-4.11-1.74-6.1Z"/>
      <path class="cls-1" d="M482.85,15.76c1.96,2.5,5,4.67,4.98,6.82-.02,2.15-2.95,5.82-4.87,5.99-1.98.18-4.99-3.45-4.86-5.79.14-2.32,2.9-4.48,4.74-7.02Z"/>
      <path class="cls-1" d="M130.11,22.34c-1.9,2.2-3.67,4.34-5.57,6.37-.31.33-5.65-5.7-5.28-6.16,1.73-2.15,3.64-4.15,5.49-6.21,1.72,1.93,3.45,3.86,5.36,6Z"/>
      <path class="cls-1" d="M68.53,347.56c-.95,2.02,1.29,6.05-2.05,6-2.66-.04-5.35-2.97-6.91-5.8-.37-.67,6.63-6.4,7.43-5.98,2.56,1.32.79,3.83,1.53,5.79Z"/>
      <path class="cls-1" d="M364.24,215.74c.15,6.56-2.2,12.14-6.74,16.68-16.12,16.11-32.36,32.1-48.46,48.23-2.32,2.33-3.74,2.71-6.32.11-15.6-15.68-31.42-31.15-47.14-46.72-6.92-6.85-10.59-14.82-8.15-24.76,4.1-16.65,23.1-23.33,36.6-12.71,6.82,5.36,12.48,11.98,18.42,18.26,2.5,2.64,4.03,3.07,6.65.09,4.95-5.61,10.21-10.96,15.57-16.19,7.87-7.69,17.06-9.62,26.01-5.46,9.5,4.42,13.41,12.36,13.57,22.47Z"/>
    </g>
  </g>
</svg>